<svg width="205" height="63" viewBox="0 0 205 63" fill="none" xmlns="http://www.w3.org/2000/svg">
<path d="M1.75 15.65H14.8C16.4667 15.65 17.9833 15.85 19.35 16.25C20.75 16.6167 21.9333 17.1833 22.9 17.95C23.9 18.6833 24.6667 19.6167 25.2 20.75C25.7667 21.85 26.05 23.15 26.05 24.65C26.05 25.7167 25.9167 26.6333 25.65 27.4C25.3833 28.1333 25.1 28.75 24.8 29.25C24.4333 29.85 24.0167 30.35 23.55 30.75C24.2833 31.2167 24.95 31.8167 25.55 32.55C26.05 33.1833 26.5 33.9833 26.9 34.95C27.3333 35.9167 27.55 37.1 27.55 38.5C27.55 40.1 27.2667 41.55 26.7 42.85C26.1333 44.15 25.3167 45.2667 24.25 46.2C23.2167 47.1 21.9333 47.8 20.4 48.3C18.9 48.7667 17.2167 49 15.35 49H1.75V15.65ZM13.25 41.15C15.7833 41.15 17.05 40.1833 17.05 38.25C17.05 36.3167 15.7833 35.35 13.25 35.35H12.05V41.15H13.25ZM15.75 25.8C15.75 24.2667 14.9167 23.5 13.25 23.5H12.05V28.1H13.25C14.9167 28.1 15.75 27.3333 15.75 25.8ZM34.7773 15.65H46.0773V49H34.7773V15.65ZM58.9723 24.4H52.8223V15.65H76.1223V24.4H69.9723V49H58.9723V24.4ZM82.8633 15.65H102.513V24.4H93.5133V28.1H102.363V36.4H93.5133V40.25H102.863V49H82.8633V15.65Z" fill="#DD7438"/>
<path d="M143.394 45.7C142.561 45.7 141.977 45.3833 141.644 44.75C141.344 44.1167 141.194 43.35 141.194 42.45C141.194 41.2833 141.377 40.0667 141.744 38.8C142.111 37.5 142.477 36.4333 142.844 35.6C143.677 33.7333 144.094 32.5 144.094 31.9C144.094 31.4333 143.877 31.2 143.444 31.2C143.344 31.2 143.227 31.2 143.094 31.2C142.994 31.2 142.877 31.2333 142.744 31.3C141.811 31.5667 140.727 32.1 139.494 32.9C138.294 33.7 137.094 34.6 135.894 35.6C134.694 36.6 133.661 37.5833 132.794 38.55C132.327 39.0833 131.894 39.7 131.494 40.4C131.094 41.1 130.777 41.5833 130.544 41.85C130.177 42.2833 129.744 42.5 129.244 42.5C128.911 42.5 128.611 42.3833 128.344 42.15C128.111 41.8833 128.044 41.4833 128.144 40.95C128.411 39.3833 128.594 38.4 128.694 38C128.794 37.5667 128.861 37.35 128.894 37.35V36.85C128.894 36.05 128.844 35.3 128.744 34.6C128.677 33.8667 128.511 33.3 128.244 32.9C128.011 32.5 127.644 32.3833 127.144 32.55C126.244 32.8167 125.211 33.35 124.044 34.15C122.877 34.95 121.727 35.85 120.594 36.85C119.461 37.85 118.494 38.7833 117.694 39.65C116.861 40.5833 116.327 41.35 116.094 41.95C115.894 42.55 115.794 42.85 115.794 42.85C115.494 43.1833 115.211 43.35 114.944 43.35C114.311 43.35 113.994 42.7833 113.994 41.65C113.994 40.65 114.177 39.5167 114.544 38.25C114.911 36.9833 115.361 35.7333 115.894 34.5C116.461 33.2333 116.977 32.1333 117.444 31.2C117.744 30.6667 118.161 30.4 118.694 30.4C119.061 30.4 119.361 30.5333 119.594 30.8C119.861 31.0667 119.961 31.4333 119.894 31.9C119.894 32.1 119.694 32.5 119.294 33.1C118.894 33.6667 118.477 34.3667 118.044 35.2C117.644 36 117.394 36.8667 117.294 37.8C117.661 37.2333 117.977 36.8333 118.244 36.6C118.544 36.3333 118.911 35.9833 119.344 35.55C120.277 34.6167 121.077 33.8833 121.744 33.35C122.444 32.8167 123.177 32.35 123.944 31.95C124.711 31.55 125.661 31.1 126.794 30.6C127.094 30.4333 127.411 30.3 127.744 30.2C128.077 30.1 128.411 30.05 128.744 30.05C129.277 30.05 129.761 30.25 130.194 30.65C130.627 31.0167 130.977 31.6833 131.244 32.65C131.544 33.6167 131.677 35.0167 131.644 36.85C132.111 36.4833 132.511 36.1167 132.844 35.75C133.211 35.35 133.611 34.9333 134.044 34.5C135.011 33.5333 135.861 32.75 136.594 32.15C137.361 31.5167 138.161 30.9667 138.994 30.5C139.861 30 140.894 29.4833 142.094 28.95C142.461 28.7833 142.894 28.6333 143.394 28.5C143.894 28.3333 144.377 28.25 144.844 28.25C145.411 28.25 145.911 28.4167 146.344 28.75C146.777 29.0833 146.994 29.7 146.994 30.6C146.994 31.2 146.877 31.95 146.644 32.85C146.444 33.7167 146.061 34.7833 145.494 36.05C144.994 37.2167 144.561 38.4667 144.194 39.8C143.861 41.1333 143.627 42.2333 143.494 43.1C143.861 43.6333 144.044 44.2167 144.044 44.85C144.044 45.0833 143.994 45.2833 143.894 45.45C143.794 45.6167 143.627 45.7 143.394 45.7ZM159.705 43.9C158.772 43.9 157.855 43.7 156.955 43.3C156.088 42.9 155.372 42.35 154.805 41.65C154.238 40.95 153.955 40.15 153.955 39.25C153.955 37.9167 154.305 36.75 155.005 35.75C155.705 34.75 156.588 33.9 157.655 33.2C158.755 32.5 159.872 31.9667 161.005 31.6C162.105 31.2333 163.305 31.05 164.605 31.05C165.972 31.05 167.288 31.3 168.555 31.8C169.855 32.2667 170.772 33.0833 171.305 34.25C171.572 33.3833 171.772 32.5333 171.905 31.7C172.038 30.8333 172.105 30.0833 172.105 29.45C172.105 28.3833 171.888 27.5667 171.455 27C171.055 26.4333 170.322 26.15 169.255 26.15C168.822 26.15 168.322 26.3167 167.755 26.65C167.188 26.95 166.638 27.35 166.105 27.85C165.905 28.05 165.755 28.1833 165.655 28.25C165.588 28.3167 165.405 28.35 165.105 28.35C164.772 28.35 164.505 28.2333 164.305 28C164.138 27.7667 164.055 27.5 164.055 27.2C164.055 26.8 164.205 26.45 164.505 26.15C164.805 25.85 165.138 25.5167 165.505 25.15C165.872 24.7833 166.338 24.4667 166.905 24.2C167.505 23.9 168.255 23.75 169.155 23.75C171.022 23.75 172.388 24.1833 173.255 25.05C174.122 25.9167 174.555 27.3333 174.555 29.3C174.555 30.2667 174.422 31.2667 174.155 32.3C173.922 33.3333 173.638 34.4333 173.305 35.6C173.105 36.3333 172.822 37.1667 172.455 38.1C172.122 39 171.688 39.9 171.155 40.8C170.622 41.7 169.972 42.4667 169.205 43.1C168.972 43.3 168.722 43.4 168.455 43.4C168.122 43.4 167.838 43.2833 167.605 43.05C167.372 42.8167 167.255 42.55 167.255 42.25C167.255 41.95 167.405 41.65 167.705 41.35C168.072 41.05 168.455 40.5667 168.855 39.9C169.288 39.2333 169.688 38.4 170.055 37.4C169.955 36.0333 169.305 35.0333 168.105 34.4C166.938 33.7667 165.638 33.45 164.205 33.45C163.372 33.45 162.572 33.55 161.805 33.75C160.972 33.9833 160.138 34.3833 159.305 34.95C158.472 35.4833 157.772 36.1167 157.205 36.85C156.672 37.5833 156.405 38.35 156.405 39.15C156.405 39.7833 156.722 40.35 157.355 40.85C158.022 41.35 158.805 41.6 159.705 41.6C160.472 41.6 161.072 41.5833 161.505 41.55C161.972 41.5167 162.405 41.4167 162.805 41.25C163.238 41.05 163.788 40.7 164.455 40.2C164.755 40 165.005 39.9 165.205 39.9C165.472 39.9 165.688 39.9833 165.855 40.15C166.022 40.3167 166.105 40.5333 166.105 40.8C166.105 41.1667 165.922 41.4833 165.555 41.75C164.422 42.6833 163.422 43.2833 162.555 43.55C161.722 43.7833 160.772 43.9 159.705 43.9ZM180.813 57.85C180.279 57.85 179.762 57.6333 179.262 57.2C178.729 56.7667 178.512 56.0833 178.612 55.15C178.679 54.2833 178.912 53.1167 179.312 51.65C179.712 50.2167 180.212 48.6167 180.813 46.85C181.413 45.0833 182.079 43.2667 182.813 41.4C183.546 39.5 184.279 37.6667 185.013 35.9C185.746 34.1 186.446 32.4833 187.113 31.05C187.779 29.5833 188.346 28.4 188.813 27.5C189.113 26.9667 189.529 26.7 190.063 26.7C190.396 26.7 190.679 26.8167 190.913 27.05C191.146 27.25 191.263 27.5667 191.263 28C191.263 28.2667 191.163 28.7 190.963 29.3C190.763 29.8667 190.513 30.35 190.213 30.75C189.746 31.35 189.246 32.1 188.713 33C188.179 33.8667 187.679 34.7833 187.213 35.75C188.946 33.3167 190.763 31.4167 192.663 30.05C194.563 28.6833 196.629 27.6833 198.863 27.05C199.196 26.95 199.513 26.8833 199.813 26.85C200.113 26.8167 200.396 26.8 200.663 26.8C202.029 26.8 202.996 27.2667 203.563 28.2C204.163 29.1333 204.463 30.1333 204.463 31.2C204.463 32.3667 204.213 33.3333 203.713 34.1C202.813 35.9333 201.763 37.45 200.563 38.65C199.363 39.8167 198.063 40.7833 196.663 41.55C195.296 42.2833 193.863 42.9667 192.363 43.6C191.629 43.9333 190.979 44.1667 190.413 44.3C189.879 44.4 189.413 44.45 189.013 44.45C188.413 44.45 187.996 44.3167 187.763 44.05C187.529 43.7833 187.413 43.4833 187.413 43.15C187.413 42.6833 187.546 42.25 187.813 41.85C188.079 41.45 188.329 41.2833 188.563 41.35C188.796 41.3833 189.079 41.4333 189.413 41.5C189.746 41.5667 190.096 41.6 190.463 41.6C191.329 41.6 192.063 41.45 192.663 41.15C193.629 40.65 194.629 40.0833 195.663 39.45C196.729 38.8167 197.763 38 198.763 37C199.796 35.9667 200.696 34.65 201.463 33.05C201.663 32.4833 201.763 31.9333 201.763 31.4C201.763 30.8333 201.613 30.35 201.313 29.95C201.046 29.55 200.579 29.35 199.913 29.35C198.813 29.35 197.413 29.85 195.713 30.85C194.013 31.8167 192.229 33.1833 190.363 34.95C188.496 36.7167 186.729 38.7667 185.063 41.1C184.329 42.9667 183.646 44.8 183.013 46.6C182.413 48.4 181.929 50 181.563 51.4C181.196 52.8333 180.979 53.8833 180.913 54.55C180.879 54.9167 181.079 55.3 181.513 55.7C181.946 56.1 182.163 56.5 182.163 56.9C182.163 57.1667 181.996 57.4167 181.663 57.65C181.496 57.7833 181.213 57.85 180.813 57.85Z" fill="#134446"/>
</svg>
