<svg width="539" height="36" viewBox="0 0 539 36" fill="none" xmlns="http://www.w3.org/2000/svg">
<path d="M0.75 1.65H20.4V10.4H11.4V14.1H20.25V22.4H11.4V35H0.75V1.65ZM28.1621 1.65H39.4621V35H28.1621V1.65ZM47.957 1.65H56.707L65.907 14.5V1.65H76.357V35H67.557L58.407 22.2V35H47.957V1.65ZM84.8418 35V1.65H94.0918C97.2251 1.65 100.008 2 102.442 2.7C104.908 3.4 106.975 4.45 108.642 5.85C110.342 7.25 111.625 9 112.492 11.1C113.392 13.1667 113.842 15.5667 113.842 18.3C113.842 21.0333 113.392 23.45 112.492 25.55C111.625 27.6167 110.342 29.35 108.642 30.75C106.975 32.15 104.908 33.2167 102.442 33.95C100.008 34.65 97.2251 35 94.0918 35H84.8418ZM95.4918 25.5C97.9918 25.5 99.9251 24.9167 101.292 23.75C102.658 22.55 103.342 20.7333 103.342 18.3C103.342 15.8667 102.658 14.0667 101.292 12.9C99.9251 11.7333 97.9918 11.15 95.4918 11.15V25.5ZM144.19 20.65L133.84 1.65H145.69L149.54 8.7L153.34 1.65H165.19L154.84 20.65V35H144.19V20.65ZM166.67 18.35C166.67 15.95 167.12 13.6833 168.02 11.55C168.953 9.41666 170.203 7.56666 171.77 6C173.37 4.4 175.237 3.15 177.37 2.25C179.503 1.31667 181.77 0.849999 184.17 0.849999C186.57 0.849999 188.837 1.31667 190.97 2.25C193.103 3.15 194.953 4.4 196.52 6C198.12 7.56666 199.37 9.41666 200.27 11.55C201.203 13.6833 201.67 15.95 201.67 18.35C201.67 20.75 201.203 23.0167 200.27 25.15C199.37 27.2833 198.12 29.15 196.52 30.75C194.953 32.3167 193.103 33.5667 190.97 34.5C188.837 35.4 186.57 35.85 184.17 35.85C181.77 35.85 179.503 35.4 177.37 34.5C175.237 33.5667 173.37 32.3167 171.77 30.75C170.203 29.15 168.953 27.2833 168.02 25.15C167.12 23.0167 166.67 20.75 166.67 18.35ZM177.17 18.35C177.17 19.3167 177.353 20.2333 177.72 21.1C178.087 21.9333 178.587 22.6667 179.22 23.3C179.853 23.9333 180.587 24.4333 181.42 24.8C182.287 25.1667 183.203 25.35 184.17 25.35C185.137 25.35 186.037 25.1667 186.87 24.8C187.737 24.4333 188.487 23.9333 189.12 23.3C189.753 22.6667 190.253 21.9333 190.62 21.1C190.987 20.2333 191.17 19.3167 191.17 18.35C191.17 17.3833 190.987 16.4833 190.62 15.65C190.253 14.7833 189.753 14.0333 189.12 13.4C188.487 12.7667 187.737 12.2667 186.87 11.9C186.037 11.5333 185.137 11.35 184.17 11.35C183.203 11.35 182.287 11.5333 181.42 11.9C180.587 12.2667 179.853 12.7667 179.22 13.4C178.587 14.0333 178.087 14.7833 177.72 15.65C177.353 16.4833 177.17 17.3833 177.17 18.35ZM223.082 35.85C220.982 35.85 219.082 35.5833 217.382 35.05C215.682 34.5167 214.232 33.7167 213.032 32.65C211.832 31.5833 210.898 30.2333 210.232 28.6C209.598 26.9667 209.282 25.05 209.282 22.85V1.65H219.932V22.4C219.932 23.5667 220.165 24.4667 220.632 25.1C221.132 25.7 221.948 26 223.082 26C224.215 26 225.015 25.7 225.482 25.1C225.982 24.4667 226.232 23.5667 226.232 22.4V1.65H236.932V22.85C236.932 25.05 236.598 26.9667 235.932 28.6C235.298 30.2333 234.365 31.5833 233.132 32.65C231.932 33.7167 230.482 34.5167 228.782 35.05C227.082 35.5833 225.182 35.85 223.082 35.85ZM245.291 1.65H256.791C258.924 1.65 260.891 1.93333 262.691 2.5C264.524 3.06667 266.108 3.9 267.441 5C268.774 6.1 269.808 7.46667 270.541 9.1C271.308 10.7 271.691 12.55 271.691 14.65C271.691 16.3167 271.458 17.7333 270.991 18.9C270.524 20.0667 270.008 21.0333 269.441 21.8C268.774 22.6667 268.024 23.4 267.191 24L273.441 35H260.941L255.941 26.55V35H245.291V1.65ZM255.941 18.05H256.491C257.758 18.05 258.824 17.7667 259.691 17.2C260.591 16.6333 261.041 15.6833 261.041 14.35C261.041 13.0167 260.591 12.0667 259.691 11.5C258.824 10.9333 257.758 10.65 256.491 10.65H255.941V18.05ZM294.451 1.65H303.201L312.401 14.5V1.65H322.851V35H314.051L304.901 22.2V35H294.451V1.65ZM331.336 1.65H350.986V10.4H341.986V14.1H350.836V22.4H341.986V26.25H351.336V35H331.336V1.65ZM366.328 17.75L357.478 1.65H369.128L372.128 7.1L375.128 1.65H386.828L377.978 17.75L387.478 35H375.828L372.128 28.35L368.478 35H356.828L366.328 17.75ZM398.91 10.4H392.76V1.65H416.06V10.4H409.91V35H398.91V10.4ZM437.811 1.65H450.861C452.527 1.65 454.044 1.85 455.411 2.25C456.811 2.61666 457.994 3.18333 458.961 3.95C459.961 4.68333 460.727 5.61667 461.261 6.75C461.827 7.85 462.111 9.15 462.111 10.65C462.111 11.7167 461.977 12.6333 461.711 13.4C461.444 14.1333 461.161 14.75 460.861 15.25C460.494 15.85 460.077 16.35 459.611 16.75C460.344 17.2167 461.011 17.8167 461.611 18.55C462.111 19.1833 462.561 19.9833 462.961 20.95C463.394 21.9167 463.611 23.1 463.611 24.5C463.611 26.1 463.327 27.55 462.761 28.85C462.194 30.15 461.377 31.2667 460.311 32.2C459.277 33.1 457.994 33.8 456.461 34.3C454.961 34.7667 453.277 35 451.411 35H437.811V1.65ZM449.311 27.15C451.844 27.15 453.111 26.1833 453.111 24.25C453.111 22.3167 451.844 21.35 449.311 21.35H448.111V27.15H449.311ZM451.811 11.8C451.811 10.2667 450.977 9.5 449.311 9.5H448.111V14.1H449.311C450.977 14.1 451.811 13.3333 451.811 11.8ZM470.838 1.65H482.138V35H470.838V1.65ZM495.033 10.4H488.883V1.65H512.183V10.4H506.033V35H495.033V10.4ZM518.924 1.65H538.574V10.4H529.574V14.1H538.424V22.4H529.574V26.25H538.924V35H518.924V1.65Z" fill="#DD7438"/>
</svg>
