<svg width="29" height="45" viewBox="0 0 29 45" fill="none" xmlns="http://www.w3.org/2000/svg">
<path fill-rule="evenodd" clip-rule="evenodd" d="M7.79712 1.448C4.40012 2.99 2.94489 4.5 0.944889 8.029C-1.05493 15 -0.0715179 17.303 5.74248 26.391C8.28848 30.37 10.8711 36.06 12.0801 39.034L14.2781 44.441L15.4091 40.699C16.0311 38.64 18.4084 32.906 21.4444 27.956C28.1641 17 29.2792 14.5 27.4448 8.029C25.8238 4.364 23.7801 2.99 20.3831 1.448C18.0221 0.377 14.5444 0 13.4444 0C12.3444 0 10.1581 0.377 7.79712 1.448Z" fill="#DD7438"/>
<path d="M18.9448 14.5C18.9448 17.2614 16.7062 19.5 13.9448 19.5C11.1834 19.5 8.94482 17.2614 8.94482 14.5C8.94482 11.7386 11.1834 9.5 13.9448 9.5C16.7062 9.5 18.9448 11.7386 18.9448 14.5Z" fill="#515151"/>
</svg>
